<svg xmlns="http://www.w3.org/2000/svg" width="20" height="20" viewBox="0 0 20 20">
    <defs>
        <filter id="hziommadfa" color-interpolation-filters="auto">
            <feColorMatrix in="SourceGraphic" values="0 0 0 0 0.200000 0 0 0 0 0.200000 0 0 0 0 0.200000 0 0 0 1.000000 0"/>
        </filter>
    </defs>
    <g fill="none" fill-rule="evenodd">
        <g>
            <g>
                <g>
                    <g>
                        <g>
                            <g>
                                <g filter="url(#hziommadfa)" transform="translate(-1220.000000, -4324.000000) translate(0.000000, 3870.000000) translate(56.000000, 80.000000) translate(978.000000, 0.000000) translate(132.000000, 368.000000) translate(48.000000, 0.000000) translate(6.000000, 6.000000)">
                                    <g>
                                        <path fill="#000" fill-rule="nonzero" d="M18.333 1.765c-.674.309-1.402.511-2.155.609.77-.468 1.367-1.21 1.647-2.1-.727.44-1.534.75-2.384.926C14.75.441 13.776 0 12.672 0 10.612 0 8.93 1.694 8.93 3.785c0 .3.035.591.096.865C5.906 4.491 3.13 2.982 1.28.697.955 1.253.771 1.906.771 2.594c0 1.315.657 2.48 1.674 3.141-.622 0-1.2-.176-1.709-.44v.026c0 1.835 1.297 3.37 3.015 3.714-.316.089-.649.133-.99.133-.237 0-.474-.027-.702-.07.474 1.49 1.85 2.602 3.506 2.628-1.28 1.024-2.9 1.624-4.671 1.624-.298 0-.596-.018-.894-.053C1.665 14.374 3.646 15 5.766 15c6.906 0 10.7-5.77 10.7-10.774 0-.167 0-.326-.008-.494.736-.53 1.367-1.2 1.875-1.967z" transform="translate(0.833333, 2.500000)"/>
                                    </g>
                                </g>
                            </g>
                        </g>
                    </g>
                </g>
            </g>
        </g>
    </g>
</svg>
