<svg xmlns="http://www.w3.org/2000/svg" width="20" height="20" viewBox="0 0 20 20">
    <defs>
        <filter id="dq92tpehqa" color-interpolation-filters="auto">
            <feColorMatrix in="SourceGraphic" values="0 0 0 0 0.200000 0 0 0 0 0.200000 0 0 0 0 0.200000 0 0 0 1.000000 0"/>
        </filter>
    </defs>
    <g fill="none" fill-rule="evenodd">
        <g>
            <g>
                <g>
                    <g>
                        <g>
                            <g>
                                <g filter="url(#dq92tpehqa)" transform="translate(-1268.000000, -4324.000000) translate(0.000000, 3870.000000) translate(56.000000, 80.000000) translate(978.000000, 0.000000) translate(132.000000, 368.000000) translate(96.000000, 0.000000) translate(6.000000, 6.000000)">
                                    <g>
                                        <path fill="#000" fill-rule="nonzero" d="M4.833 0h7c2.667 0 4.834 2.167 4.834 4.833v7c0 2.67-2.164 4.834-4.834 4.834h-7C2.167 16.667 0 14.5 0 11.833v-7C0 2.164 2.164 0 4.833 0m-.166 1.667c-1.657 0-3 1.343-3 3V12c0 1.658 1.341 3 3 3H12c1.657 0 3-1.343 3-3V4.667c0-1.659-1.342-3-3-3H4.667m8.041 1.25c.576 0 1.042.466 1.042 1.041 0 .576-.466 1.042-1.042 1.042-.575 0-1.041-.466-1.041-1.042 0-.575.466-1.041 1.041-1.041m-4.375 1.25c2.302 0 4.167 1.865 4.167 4.166 0 2.302-1.865 4.167-4.167 4.167-2.3 0-4.166-1.865-4.166-4.167 0-2.3 1.865-4.166 4.166-4.166m0 1.666c-1.38 0-2.5 1.12-2.5 2.5 0 1.381 1.12 2.5 2.5 2.5 1.381 0 2.5-1.119 2.5-2.5 0-1.38-1.119-2.5-2.5-2.5z" transform="translate(1.666667, 1.666667)"/>
                                    </g>
                                </g>
                            </g>
                        </g>
                    </g>
                </g>
            </g>
        </g>
    </g>
</svg>
