<svg xmlns="http://www.w3.org/2000/svg" width="20" height="20" viewBox="0 0 20 20">
    <defs>
        <filter id="wuc9ev49ka" color-interpolation-filters="auto">
            <feColorMatrix in="SourceGraphic" values="0 0 0 0 0.200000 0 0 0 0 0.200000 0 0 0 0 0.200000 0 0 0 1.000000 0"/>
        </filter>
    </defs>
    <g fill="none" fill-rule="evenodd">
        <g>
            <g>
                <g>
                    <g>
                        <g>
                            <g filter="url(#wuc9ev49ka)" transform="translate(-1172.000000, -4324.000000) translate(0.000000, 3870.000000) translate(56.000000, 80.000000) translate(978.000000, 0.000000) translate(132.000000, 368.000000) translate(6.000000, 6.000000)">
                                <g>
                                    <path fill="#000" fill-rule="nonzero" d="M8.333 0C3.75 0 0 3.757 0 8.384c0 4.183 3.05 7.655 7.033 8.283V10.81H4.917V8.384h2.116v-1.85c0-2.1 1.242-3.254 3.15-3.254.909 0 1.859.159 1.859.159v2.066h-1.05c-1.034 0-1.359.645-1.359 1.306v1.573h2.317l-.375 2.426H9.633v5.857c4.058-.644 7.043-4.16 7.034-8.283C16.667 3.757 12.917 0 8.333 0z" transform="translate(1.666667, 1.666667)"/>
                                </g>
                            </g>
                        </g>
                    </g>
                </g>
            </g>
        </g>
    </g>
</svg>
